<svg xmlns="http://www.w3.org/2000/svg" viewBox="0 0 78 50" width="78" height="50">
  <rect width="78" height="50" rx="6" fill="#FFB3C7"/>
  <g transform="translate(10, 16)" fill="#0A0A0A">
    <path d="M0 0h3.6v17.4H0V0zm9.4 6.7L4.7 12l4.9 5.4H5.1l-3.3-3.8v-3l3.3-3.9h4.3z"/>
    <path d="M11.6 0h3.6v17.4h-3.6V0z"/>
    <path d="M22.5 5.5c2.8 0 4.8 1.9 4.8 4.7v7.2h-3.4v-1.7c-.8 1.2-2.1 1.9-3.6 1.9-2.6 0-4.3-1.7-4.3-4 0-2.5 1.9-3.9 5.1-4.1l2.8-.2v-.6c0-1.3-.9-2.1-2.3-2.1-1.3 0-2.3.6-2.6 1.7l-3.2-.7c.7-2.3 2.9-3.6 5.9-3.6zm1.4 7.1l-2.1.2c-1.6.1-2.5.8-2.5 1.9 0 1.1.9 1.8 2.1 1.8 1.5 0 2.5-1 2.5-2.5v-1.4z"/>
    <path d="M29.5 5.7h3.4v2.3c.7-1.7 2.1-2.5 3.8-2.5v3.6c-2.3 0-3.6 1.3-3.6 3.6v4.7h-3.6V5.7z"/>
    <path d="M38.7 5.7h3.4v1.8c.9-1.3 2.3-2 3.9-2 2.6 0 4.3 1.8 4.3 4.5v7.4h-3.6v-6.9c0-1.5-.9-2.4-2.2-2.4-1.5 0-2.4 1-2.4 2.6v6.7h-3.4V5.7z"/>
    <path d="M57.6 5.5c2.8 0 4.8 1.9 4.8 4.7v7.2H59v-1.7c-.8 1.2-2.1 1.9-3.6 1.9-2.6 0-4.3-1.7-4.3-4 0-2.5 1.9-3.9 5.1-4.1l2.8-.2v-.6c0-1.3-.9-2.1-2.3-2.1-1.3 0-2.3.6-2.6 1.7l-3.2-.7c.7-2.3 2.9-3.6 5.9-3.6zm1.4 7.1l-2.1.2c-1.6.1-2.5.8-2.5 1.9 0 1.1.9 1.8 2.1 1.8 1.5 0 2.5-1 2.5-2.5v-1.4z"/>
    <circle cx="65.4" cy="15.2" r="2.2"/>
  </g>
</svg>